<svg width="196" height="125" viewBox="0 0 196 125" fill="none" xmlns="http://www.w3.org/2000/svg">
<rect x="0.322129" y="0.322129" width="194.356" height="124.356" rx="2.2549" fill="white" stroke="#B2BCCA" stroke-width="0.644258"/>
<path d="M182.818 124.683L195.059 120.979V122.75C195.059 123.818 194.193 124.683 193.126 124.683H182.818Z" fill="#FD6020"/>
<path fill-rule="evenodd" clip-rule="evenodd" d="M168.581 47.4528C174.576 47.4528 177.874 49.9712 177.874 54.7283C178.173 58.3661 175.476 61.4442 171.879 62.0038L179.972 72.3575H173.677L166.783 62.2837H166.183V72.3575H161.088V47.4528H168.581ZM166.183 58.9253H167.682C170.979 58.9253 172.478 57.5261 172.478 55.0077C172.478 52.769 170.979 51.3699 167.682 51.3699H166.183V58.9253ZM143.402 72.3575H157.79V68.1601H148.498V61.4442H157.491V57.2468H148.498V51.6502H157.79V47.4528H143.402V72.3575ZM128.414 64.2425L121.519 47.4528H116.124L127.215 72.9171H129.912L141.003 47.4528H135.608L128.414 64.2425ZM67.5641 60.0443C67.5641 67.04 73.5592 72.9164 81.053 72.9164C83.4511 72.9164 85.5493 72.3568 87.6476 71.5173V65.9207C86.1488 67.5997 84.0506 68.719 81.6525 68.719C76.8565 68.719 72.9597 65.3611 72.9597 60.8838V60.3242C72.6599 55.8469 76.5567 51.9293 81.3528 51.6495C83.7508 51.6495 86.1488 52.7688 87.6476 54.4478V48.8512C85.8491 47.7319 83.4511 47.4521 81.3528 47.4521C73.5592 46.8924 67.5641 52.7688 67.5641 60.0443ZM58.2714 56.9665C55.2739 55.8472 54.3746 55.2875 54.3746 53.8884C54.6744 52.2094 56.1732 50.8103 57.9717 51.0901C59.4705 51.0901 60.9692 51.9296 62.1682 53.0489L64.866 49.691C62.7677 48.012 60.07 46.8927 57.3722 46.8927C53.1756 46.6128 49.5786 49.691 49.2788 53.6085V53.8884C49.2788 57.2463 50.7776 59.2051 55.5737 60.6042C56.7727 60.8841 57.9717 61.4437 59.1707 62.0034C60.07 62.563 60.6695 63.4025 60.6695 64.5218C60.6695 66.4806 58.8709 68.1596 57.0724 68.1596H56.7727C54.3746 68.1596 52.2764 66.7605 51.3771 64.8017L48.0798 67.8798C49.8783 70.9579 53.4754 72.6368 57.0724 72.6368C61.8685 72.9167 65.7653 69.5587 66.065 65.0815V64.242C65.7653 60.8841 64.2665 59.2051 58.2714 56.9665ZM40.8861 72.3575H45.9819V47.4528H40.8861V72.3575ZM17.2056 47.4528H24.6994H26.1982C33.3923 47.7326 39.0876 53.3292 38.7878 60.0451C38.7878 63.6828 36.9893 67.0407 33.9918 69.5592C31.294 71.518 27.9967 72.6373 24.6994 72.3575H17.2056V47.4528ZM23.8026 68.1597C26.2006 68.4395 28.8984 67.6001 30.6969 66.2009C32.4954 64.5219 33.3947 62.2833 33.3947 59.7649C33.3947 57.5262 32.4954 55.2876 30.6969 53.6087C28.8984 52.2095 26.2006 51.37 23.8026 51.6499H22.3038V68.1597H23.8026Z" fill="black"/>
<path fill-rule="evenodd" clip-rule="evenodd" d="M102.936 46.875C95.4423 46.875 89.1475 52.4716 89.1475 59.7471C89.1475 66.7428 95.1425 72.6192 102.936 72.899C110.73 73.1788 116.725 67.3024 117.025 60.0269C116.725 52.7514 110.73 46.875 102.936 46.875V46.875Z" fill="#FD6020"/>
<rect x="2.5" y="2.5" width="190" height="120" rx="47.5" stroke="black" stroke-width="5"/>
</svg>
