<svg width="179" height="79" viewBox="0 0 179 79" fill="none" xmlns="http://www.w3.org/2000/svg">
<path d="M165.818 78.683L178.059 74.9785V76.7502C178.059 77.8177 177.193 78.683 176.126 78.683H165.818Z" fill="#FD6020"/>
<path fill-rule="evenodd" clip-rule="evenodd" d="M151.581 1.4528C157.576 1.4528 160.874 3.97125 160.874 8.72832C161.173 12.3661 158.476 15.4442 154.879 16.0038L162.972 26.3575H156.677L149.783 16.2837H149.183V26.3575H144.088V1.4528H151.581ZM149.183 12.9253H150.682C153.979 12.9253 155.478 11.5261 155.478 9.00767C155.478 6.76905 153.979 5.36991 150.682 5.36991H149.183V12.9253ZM126.402 26.3575H140.79V22.1601H131.498V15.4442H140.491V11.2468H131.498V5.65022H140.79V1.4528H126.402V26.3575ZM111.414 18.2425L104.519 1.4528H99.1237L110.215 26.9171H112.912L124.003 1.4528H118.608L111.414 18.2425ZM50.5641 14.0443C50.5641 21.04 56.5592 26.9164 64.053 26.9164C66.4511 26.9164 68.5493 26.3568 70.6476 25.5173V19.9207C69.1488 21.5997 67.0506 22.719 64.6525 22.719C59.8565 22.719 55.9597 19.3611 55.9597 14.8838V14.3242C55.6599 9.84692 59.5567 5.92933 64.3528 5.64951C66.7508 5.64951 69.1488 6.76882 70.6476 8.44778V2.85123C68.8491 1.73191 66.4511 1.45209 64.3528 1.45209C56.5592 0.89243 50.5641 6.76882 50.5641 14.0443ZM41.2714 10.9665C38.2739 9.84717 37.3746 9.28752 37.3746 7.88838C37.6744 6.20941 39.1732 4.81027 40.9717 5.0901C42.4705 5.0901 43.9692 5.92958 45.1682 7.04889L47.866 3.69096C45.7677 2.01199 43.07 0.892676 40.3722 0.892676C36.1756 0.612848 32.5786 3.69096 32.2788 7.60855V7.88838C32.2788 11.2463 33.7776 13.2051 38.5737 14.6042C39.7727 14.8841 40.9717 15.4437 42.1707 16.0034C43.07 16.563 43.6695 17.4025 43.6695 18.5218C43.6695 20.4806 41.8709 22.1596 40.0724 22.1596H39.7727C37.3746 22.1596 35.2764 20.7605 34.3771 18.8017L31.0798 21.8798C32.8783 24.9579 36.4754 26.6368 40.0724 26.6368C44.8685 26.9167 48.7653 23.5587 49.065 19.0815V18.242C48.7653 14.8841 47.2665 13.2051 41.2714 10.9665ZM23.8861 26.3575H28.9819V1.4528H23.8861V26.3575ZM0.205566 1.4528H7.69941H9.19817C16.3923 1.73263 22.0876 7.32918 21.7878 14.0451C21.7878 17.6828 19.9893 21.0407 16.9918 23.5592C14.294 25.518 10.9967 26.6373 7.69941 26.3575H0.205566V1.4528ZM6.80257 22.1597C9.2006 22.4395 11.8984 21.6001 13.6969 20.2009C15.4954 18.5219 16.3947 16.2833 16.3947 13.7649C16.3947 11.5262 15.4954 9.28762 13.6969 7.60866C11.8984 6.20952 9.2006 5.37003 6.80257 5.64986H5.3038V22.1597H6.80257Z" fill="black"/>
<path fill-rule="evenodd" clip-rule="evenodd" d="M85.9361 0.875C78.4423 0.875 72.1475 6.47156 72.1475 13.7471C72.1475 20.7428 78.1425 26.6192 85.9361 26.899C93.7297 27.1788 99.7248 21.3024 100.025 14.0269C99.7248 6.75138 93.7297 0.875 85.9361 0.875V0.875Z" fill="#FD6020"/>
</svg>
