<svg width="97" height="95" viewBox="0 0 97 95" fill="none" xmlns="http://www.w3.org/2000/svg">
<path d="M65.8213 44.9556H62.1405V33.0806C62.1405 29.3326 59.0389 26.2949 55.2119 26.2949H41.7878C37.9609 26.2949 34.8592 29.3326 34.8592 33.0806V44.9556H31.1784C30.2203 44.9556 29.4463 45.7137 29.4463 46.6521V67.0092C29.4463 67.9475 30.2203 68.7056 31.1784 68.7056H65.8213C66.7794 68.7056 67.5534 67.9475 67.5534 67.0092V46.6521C67.5534 45.7137 66.7794 44.9556 65.8213 44.9556ZM50.0155 57.5198V60.3295C50.0155 60.5628 49.8206 60.7536 49.5825 60.7536H47.4173C47.1791 60.7536 46.9842 60.5628 46.9842 60.3295V57.5198C46.5374 57.2056 46.2039 56.7607 46.0317 56.249C45.8595 55.7374 45.8575 55.1855 46.026 54.6726C46.1945 54.1598 46.5248 53.7126 46.9694 53.3953C47.4139 53.0781 47.9498 52.9071 48.4999 52.9071C49.0499 52.9071 49.5858 53.0781 50.0303 53.3953C50.4749 53.7126 50.8052 54.1598 50.9737 54.6726C51.1422 55.1855 51.1402 55.7374 50.968 56.249C50.7958 56.7607 50.4623 57.2056 50.0155 57.5198ZM58.2432 44.9556H38.7566V33.0806C38.7566 31.4425 40.1152 30.1119 41.7878 30.1119H55.2119C56.8845 30.1119 58.2432 31.4425 58.2432 33.0806V44.9556Z" fill="#CC9933"/>
<path d="M96.6779 47.5C96.6779 73.5493 75.1143 94.6779 48.5 94.6779C21.8857 94.6779 0.322129 73.5493 0.322129 47.5C0.322129 21.4507 21.8857 0.322129 48.5 0.322129C75.1143 0.322129 96.6779 21.4507 96.6779 47.5Z" stroke="#CC9933" stroke-width="0.644258"/>
</svg>
