<svg width="126" height="70" viewBox="0 0 126 70" fill="none" xmlns="http://www.w3.org/2000/svg">
<path d="M76.4479 34.9668C76.4479 54.2558 59.4266 69.8927 38.4298 69.8927C17.4329 69.8927 0.411621 54.2558 0.411621 34.9668C0.411621 15.6778 17.4329 0.0410156 38.4298 0.0410156C59.4266 0.0410156 76.4479 15.6778 76.4479 34.9668Z" fill="#ED0006"/>
<path d="M125.768 34.9668C125.768 54.2558 108.747 69.8927 87.7501 69.8927C66.7532 69.8927 49.7319 54.2558 49.7319 34.9668C49.7319 15.6778 66.7532 0.0410156 87.7501 0.0410156C108.747 0.0410156 125.768 15.6778 125.768 34.9668Z" fill="#2F80ED"/>
<path fill-rule="evenodd" clip-rule="evenodd" d="M63.0895 61.5494C71.2637 55.1434 76.447 45.6113 76.447 34.9671C76.447 24.3229 71.2637 14.7908 63.0895 8.38476C54.9152 14.7908 49.7319 24.3229 49.7319 34.9671C49.7319 45.6113 54.9152 55.1434 63.0895 61.5494Z" fill="#6C6BBD"/>
</svg>
