<svg width="195" height="125" viewBox="0 0 195 125" fill="none" xmlns="http://www.w3.org/2000/svg">
<rect x="0.322129" y="0.322129" width="194.356" height="124.356" rx="2.2549" fill="white" stroke="#B2BCCA" stroke-width="0.644258"/>
<path d="M110.448 60.9668C110.448 80.2558 93.4266 95.8927 72.4298 95.8927C51.4329 95.8927 34.4116 80.2558 34.4116 60.9668C34.4116 41.6778 51.4329 26.041 72.4298 26.041C93.4266 26.041 110.448 41.6778 110.448 60.9668Z" fill="#ED0006"/>
<path d="M159.768 60.9668C159.768 80.2558 142.747 95.8927 121.75 95.8927C100.753 95.8927 83.7319 80.2558 83.7319 60.9668C83.7319 41.6778 100.753 26.041 121.75 26.041C142.747 26.041 159.768 41.6778 159.768 60.9668Z" fill="#2F80ED"/>
<path fill-rule="evenodd" clip-rule="evenodd" d="M97.0895 87.5494C105.264 81.1434 110.447 71.6113 110.447 60.9671C110.447 50.3229 105.264 40.7908 97.0895 34.3848C88.9152 40.7908 83.7319 50.3229 83.7319 60.9671C83.7319 71.6113 88.9152 81.1434 97.0895 87.5494Z" fill="#6C6BBD"/>
<rect x="2.5" y="2.5" width="190" height="120" rx="47.5" stroke="black" stroke-width="5"/>
</svg>
