<svg width="128" height="70" viewBox="0 0 128 70" fill="none" xmlns="http://www.w3.org/2000/svg">
<path fill-rule="evenodd" clip-rule="evenodd" d="M89.1182 69.9889C110.486 69.9889 127.808 54.3655 127.808 35.0931C127.808 15.8207 110.486 0.197266 89.1182 0.197266C79.5418 0.197266 70.7781 3.33528 64.022 8.53344C57.266 3.33539 48.5024 0.197449 38.9261 0.197449C17.5583 0.197449 0.236328 15.8208 0.236328 35.0933C0.236328 54.3657 17.5583 69.9891 38.9261 69.9891C48.5025 69.9891 57.2662 66.8511 64.0223 61.653C70.7783 66.851 79.5419 69.9889 89.1182 69.9889Z" fill="#ED0006"/>
<path fill-rule="evenodd" clip-rule="evenodd" d="M64.0239 61.653C72.3429 55.2524 77.6179 45.7284 77.6179 35.0931C77.6179 24.4578 72.3429 14.9338 64.0239 8.53323C70.7799 3.3352 79.5436 0.197266 89.1198 0.197266C110.488 0.197266 127.81 15.8207 127.81 35.0931C127.81 54.3655 110.488 69.9889 89.1198 69.9889C79.5436 69.9889 70.7799 66.851 64.0239 61.653Z" fill="#F9A000"/>
<path fill-rule="evenodd" clip-rule="evenodd" d="M64.0227 61.653C72.3416 55.2524 77.6166 45.7284 77.6166 35.0931C77.6166 24.4578 72.3416 14.9337 64.0227 8.5332C55.7037 14.9337 50.4287 24.4578 50.4287 35.0931C50.4287 45.7284 55.7037 55.2524 64.0227 61.653Z" fill="#FD6020"/>
</svg>
