<svg width="138" height="41" viewBox="0 0 138 41" fill="none" xmlns="http://www.w3.org/2000/svg">
<path fill-rule="evenodd" clip-rule="evenodd" d="M34.6552 40.5951H22.842L13.9836 9.00199C13.5631 7.54871 12.6703 6.26392 11.3571 5.65839C8.07982 4.13666 4.46847 2.92559 0.528809 2.31479V1.09845H19.559C22.1854 1.09845 24.1552 2.92559 24.4836 5.04759L29.0798 27.8368L40.8873 1.09845H52.3722L34.6552 40.5951ZM58.9389 40.5951H47.7823L56.969 1.09845H68.1256L58.9389 40.5951ZM82.5591 12.0402C82.8874 9.91291 84.8572 8.69657 87.1554 8.69657C90.7667 8.39117 94.7006 9.00197 97.9837 10.5184L99.9535 2.01463C96.6704 0.7983 93.0591 0.1875 89.7818 0.1875C78.9535 0.1875 71.0742 5.65837 71.0742 13.2512C71.0742 19.0275 76.6554 22.0604 80.595 23.8876C84.8572 25.7094 86.4987 26.9258 86.1704 28.7477C86.1704 31.4805 82.8874 32.6968 79.6101 32.6968C75.6704 32.6968 71.7308 31.7859 68.1252 30.2641L66.1554 38.7732C70.095 40.2897 74.3572 40.9005 78.2969 40.9005C90.4384 41.2006 97.9837 35.735 97.9837 27.5313C97.9837 17.2004 82.5591 16.5948 82.5591 12.0402ZM137.028 40.5951L128.17 1.09845H118.655C116.685 1.09845 114.715 2.31479 114.058 4.13666L97.6547 40.5951H109.14L111.432 34.8241H125.543L126.857 40.5951H137.028ZM120.297 11.7343L123.575 26.6199H114.388L120.297 11.7343Z" fill="#28356A"/>
</svg>
